# xmcd CD database file
#
# Track frame offsets:
#	150
#	26346
#	57933
#	104011
#	131596
#	152881
#	188066
#	215297
#	243739
#
# Disc length: 3674 seconds
#
# Revision: 0
# Processed by: cddbd v1.5.2PL0 Copyright (c) Steve Scherf et al.
# Submitted via: CDex 1.70beta2
#
DISCID=7c0e5809
DTITLE=Harrell Giammarco Zeppetella Deidda Sferra - The Auditorium Session
DYEAR=2008
DGENRE=Jazz
TTITLE0=I Nodi E Il Pettine
TTITLE1=Across The Sky
TTITLE2=Sei In Sei
TTITLE3=The Sun, The Moon And You
TTITLE4=Remembering Mingus At Music Inn
TTITLE5=Autumn In New York
TTITLE6=Fountain
TTITLE7=Walking On The Beach
TTITLE8=Little Girl
EXTD=YEAR: 2008
EXTT0=
EXTT1=
EXTT2=
EXTT3=
EXTT4=
EXTT5=
EXTT6=
EXTT7=
EXTT8=
PLAYORDER=
